<svg xmlns="http://www.w3.org/2000/svg" viewBox="0 0 200 200">
  <defs>
    <linearGradient id="grad" x1="0%" y1="0%" x2="100%" y2="100%">
      <stop offset="0%" style="stop-color:#3B9CFF;stop-opacity:1" />
      <stop offset="100%" style="stop-color:#1E5FCC;stop-opacity:1" />
    </linearGradient>
    <filter id="shadow" x="-50%" y="-50%" width="200%" height="200%">
      <feGaussianBlur in="SourceAlpha" stdDeviation="3"/>
      <feOffset dx="0" dy="3" result="offsetblur"/>
      <feComponentTransfer>
        <feFuncA type="linear" slope="0.3"/>
      </feComponentTransfer>
      <feMerge>
        <feMergeNode/>
        <feMergeNode in="SourceGraphic"/>
      </feMerge>
    </filter>
  </defs>
  
  <!-- Background Circle -->
  <circle cx="100" cy="100" r="95" fill="url(#grad)" filter="url(#shadow)"/>
  
  <!-- Cloud and Wind Icon -->
  <g transform="translate(100, 100)">
    <!-- Cloud -->
    <path d="M -25,-15 C -35,-15 -42,-8 -42,0 C -42,3 -41,6 -39,8 C -42,11 -44,15 -44,20 C -44,28 -37,35 -28,35 L 15,35 C 24,35 31,28 31,19 C 31,12 26,6 19,4 C 19,-6 11,-14 0,-14 C -8,-14 -15,-10 -18,-4 C -21,-11 -28,-15 -25,-15 Z" 
          fill="#FFFFFF" 
          opacity="0.95"/>
    
    <!-- Wind Lines -->
    <g stroke="#FFFFFF" stroke-width="5" stroke-linecap="round" fill="none" opacity="0.95">
      <!-- Top wind line -->
      <path d="M -5,-5 L 30,-5">
        <animate attributeName="d" 
                 values="M -5,-5 L 30,-5; M 0,-5 L 35,-5; M -5,-5 L 30,-5" 
                 dur="2s" 
                 repeatCount="indefinite"/>
      </path>
      
      <!-- Middle wind line -->
      <path d="M 0,5 L 40,5">
        <animate attributeName="d" 
                 values="M 0,5 L 40,5; M 5,5 L 45,5; M 0,5 L 40,5" 
                 dur="2s" 
                 begin="0.3s"
                 repeatCount="indefinite"/>
      </path>
      
      <!-- Bottom wind line with curve -->
      <path d="M -8,15 L 28,15 Q 35,15 35,22">
        <animate attributeName="d" 
                 values="M -8,15 L 28,15 Q 35,15 35,22; M -3,15 L 33,15 Q 40,15 40,22; M -8,15 L 28,15 Q 35,15 35,22" 
                 dur="2s" 
                 begin="0.6s"
                 repeatCount="indefinite"/>
      </path>
    </g>
  </g>
</svg>

